Coordinates
version=1
nRows=13
nColumns=36
inDegrees=yes

Units are S.I. units (second, meters, Newtons, ...)
If the header above contains a line with 'inDegrees', this indicates whether rotational values are in degrees (yes) or radians (no).

endheader
time	pelvis_tilt	pelvis_list	pelvis_rotation	pelvis_tx	pelvis_ty	pelvis_tz	hip_flexion_r	hip_adduction_r	hip_rotation_r	knee_angle_r	knee_angle_r_beta	ankle_angle_r	subtalar_angle_r	mtp_angle_r	hip_flexion_l	hip_adduction_l	hip_rotation_l	knee_angle_l	knee_angle_l_beta	ankle_angle_l	subtalar_angle_l	mtp_angle_l	lumbar_extension	lumbar_bending	lumbar_rotation	arm_flex_r	arm_add_r	arm_rot_r	elbow_flex_r	pro_sup_r	arm_flex_l	arm_add_l	arm_rot_l	elbow_flex_l	pro_sup_l
      2.95000000	    -20.50662299	     -3.20909436	     -2.71180033	      0.65576308	      0.91079348	     -0.05420614	     18.91656143	     -2.37331985	      3.89106349	     12.95943403	      0.22618479	      0.02325978	    -16.57695270	     -7.49999987	     14.20436761	     -7.74317513	      1.49939324	      2.26131558	      0.03946740	      1.71050173	    -16.22595825	     -7.49999987	     -7.93294609	      4.03385904	      0.97281284	     11.27574635	     -5.14736061	    -14.17710809	     51.50165731	     74.21518158	     11.72490283	    -18.06220992	     29.97092682	    106.83956089	     84.71661415
      2.95416670	    -20.79646403	     -3.30317657	     -2.73146485	      0.65980559	      0.91453844	     -0.05060945	     19.45520818	     -2.24513760	      3.82644052	     13.60210355	      0.23740149	     -0.18831372	    -16.64643612	     -7.49999987	     14.42288003	     -7.90862677	      1.68287478	      2.23887866	      0.03907580	      1.35643289	    -16.78766361	     -7.49999987	     -7.43697502	      4.26312735	      0.30162856	     11.47264281	     -5.61230973	    -12.76170014	     49.92698446	     75.84000022	     10.41796666	    -17.99163178	     28.47051711	    107.02664189	     87.30287881
      2.95833330	    -21.25756349	     -3.33641835	     -2.93287501	      0.65589461	      0.90834325	     -0.04437659	     20.59481357	     -1.99607909	      3.94990835	     14.84948543	      0.25917241	     -0.41481997	    -17.31061705	     -7.49999987	     14.92672157	     -8.11414681	      1.76512296	      2.41576530	      0.04216306	      1.19188411	    -17.39776455	     -7.49999987	     -6.85028786	      4.28910202	      0.45270764	     11.09291801	     -5.73187292	    -11.77693411	     49.03343981	     75.71289009	     10.54409068	    -18.27585413	     28.37550770	    107.28444645	     87.05451515
      2.96250000	    -21.68095894	     -3.20204740	     -3.15290168	      0.65223921	      0.90974910	     -0.04824187	     22.00922496	     -2.00915877	      3.85058011	     16.46100471	      0.28729873	     -0.07389712	    -17.09576481	     -7.49999987	     15.47577138	     -8.12218780	      1.73993060	      2.58830534	      0.04517445	      1.13918835	    -17.53374169	     -7.49999987	     -6.56092674	      4.19865461	      0.41205480	     10.90053874	     -5.70675858	    -11.36156539	     47.91450054	     75.99700244	     11.16617690	    -18.66359463	     28.73128632	    107.56317065	     87.48254755
      2.96666670	    -22.03505693	     -3.06551870	     -3.22036449	      0.65976909	      0.91185313	     -0.04860171	     23.24029935	     -2.19404544	      3.26568453	     18.17179718	      0.31715769	      0.26970233	    -16.27558530	     -7.49999987	     15.86723340	     -8.06397492	      1.86924012	      2.77892579	      0.04850140	      0.99748856	    -17.76044848	     -7.49999987	     -6.11380403	      4.23498753	      0.11390408	     10.49275345	     -5.79609498	    -11.20802359	     46.28056022	     76.44685253	     11.12919105	    -18.72446608	     28.92393670	    107.38940148	     88.23762741
      2.97083330	    -22.36212930	     -2.88878017	     -3.47918512	      0.65987618	      0.90942376	     -0.04825655	     24.74271030	     -2.39987907	      2.86497950	     20.29230005	      0.35416745	      0.97267131	    -15.45143117	     -7.49999987	     16.24265197	     -8.00328450	      1.74192980	      3.08527591	      0.05384822	      1.03751936	    -18.20550580	     -7.49999987	     -5.79115394	      4.29866106	     -0.30336278	     10.17860077	     -5.70510194	    -10.93102779	     45.47517447	     78.38757387	     11.49217484	    -19.00191749	     29.11457408	    107.71333943	     91.45967425
      2.97500000	    -22.60981543	     -2.65250849	     -3.65111437	      0.65975440	      0.90901248	     -0.04762781	     26.13140608	     -2.67992090	      2.65432336	     22.35781735	      0.39021753	      1.51577063	    -14.83604316	     -7.49999987	     16.56481943	     -7.84348589	      1.60624774	      3.42446196	      0.05976814	      1.11798153	    -18.32710412	     -7.49999987	     -5.39856642	      4.20829886	     -0.56044834	      9.33285933	     -5.32551307	    -11.46930306	     45.05517261	     76.94574213	     12.02670323	    -19.08109663	     30.06407688	    107.56210359	     89.74655265
      2.97916670	    -22.71850511	     -2.38286064	     -3.71258794	      0.66731226	      0.90979104	     -0.05805494	     27.03523655	     -3.30831526	      2.39040124	     24.11110760	      0.42081821	      1.92449400	    -14.18011836	     -7.49999987	     16.55975426	     -7.43740697	      1.62771371	      3.60669166	      0.06294864	      1.03356583	    -18.70440187	     -7.49999987	     -4.88963311	      4.33820393	     -1.22653658	      8.53673479	     -5.32094522	    -12.51899404	     44.61873846	     79.56551327	     11.83738479	    -18.61617470	     30.27553220	    107.08573985	     93.16644967
      2.98333330	    -22.77223214	     -2.03717032	     -3.89018698	      0.66723687	      0.90867004	     -0.05742396	     28.06083108	     -3.86453238	      2.45679700	     26.00024325	      0.45378985	      2.31865807	    -13.95826213	     -7.49999987	     16.55673412	     -6.95683985	      1.36019421	      3.87950389	      0.06771012	      1.28739665	    -18.98847540	     -7.49999987	     -4.61614677	      4.30076724	     -1.37601994	      8.23018454	     -5.62856994	    -12.70180051	     44.35501940	     78.81619709	     11.99877551	    -18.68708698	     31.00646402	    107.16872891	     92.32595528
      2.98750000	    -22.82455415	     -1.68609307	     -3.86949057	      0.66733096	      0.90964099	     -0.05771367	     28.96018484	     -4.44769126	      2.71568729	     27.62448816	      0.48213827	      2.50897875	    -13.90801090	     -7.49999987	     16.62499268	     -6.41103682	      1.37801205	      4.10954339	      0.07172506	      1.18739571	    -19.30664302	     -7.49999987	     -4.40771819	      4.31198698	     -1.66449486	      8.16314623	     -5.75886848	    -12.86811106	     44.08937414	     77.79488229	     12.64755431	    -18.78107229	     32.00154670	    106.92307660	     91.19636484
      2.99166670	    -22.93910847	     -1.38139123	     -3.90499683	      0.66726715	      0.90859802	     -0.05714011	     29.92725774	     -4.91012604	      2.86777745	     29.18900708	      0.50944428	      2.73666501	    -13.61868205	     -7.49999987	     16.96476453	     -5.95903475	      1.53394040	      4.68074148	      0.08169435	      1.00158728	    -20.05188170	     -7.49999987	     -4.10093185	      4.29273659	     -2.12934605	      8.03238418	     -5.54555990	    -13.17634735	     43.98191958	     80.14629217	     12.93374387	    -18.78143334	     32.14786961	    106.60129507	     94.46178874
      2.99583330	    -22.59706413	     -1.14407273	     -3.79424899	      0.67493582	      0.90930527	     -0.05789541	     30.06740211	     -5.33149598	      3.01767497	     30.40983526	      0.53075175	      2.71305887	    -13.67450820	     -7.49999987	     16.47626563	     -5.52938358	      1.58251510	      4.81863728	      0.08410109	      1.05350314	    -20.09264257	     -7.49999987	     -4.14391537	      4.38313167	     -2.64064359	      7.64102250	     -5.43598614	    -13.23013996	     43.97477159	     80.15833304	     12.68619434	    -18.79410095	     32.33696213	    106.24337584	     94.49014042
      3.00000000	    -22.32624835	     -1.07784844	     -3.78468336	      0.67883636	      0.91230776	     -0.05314102	     30.04984593	     -5.43665022	      2.99105300	     31.28407066	      0.54601004	      2.61148704	    -13.55003651	     -7.49999987	     15.99194215	     -5.42245716	      1.50166577	      4.97161727	      0.08677109	      1.06026205	    -20.14743454	     -7.49999987	     -4.13262625	      4.54220952	     -2.94712344	      6.94716305	     -5.21870977	    -13.26011536	     43.68182989	     80.16279989	     12.46182652	    -18.75306541	     32.44917392	    106.09890728	     94.51665197
